<svg width="31" height="32" viewBox="0 0 31 32" fill="none" xmlns="http://www.w3.org/2000/svg"><path fill-rule="evenodd" clip-rule="evenodd" d="M20.5714 21.1509L20.5961 21.1745L24.8458 25.4063C25.4098 25.0385 26.0837 24.8248 26.8075 24.8248C28.7913 24.8248 30.4002 26.4306 30.4002 28.4123C30.4002 30.394 28.7913 31.9998 26.8075 31.9998C24.8236 31.9998 23.2148 30.394 23.2148 28.4123C23.2148 27.7542 23.3922 27.1375 23.7019 26.6074L19.4257 22.3493C19.1013 22.0262 19.1003 21.5012 19.4234 21.1768C19.7385 20.8605 20.2455 20.8516 20.5714 21.1509ZM26.8075 26.4831C25.7387 26.4831 24.8729 27.3472 24.8729 28.4123C24.8729 29.4774 25.7387 30.3415 26.8075 30.3415C27.8763 30.3415 28.742 29.4774 28.742 28.4123C28.742 27.3472 27.8763 26.4831 26.8075 26.4831ZM8.87207 21.339C9.19047 21.652 9.20276 22.1589 8.90568 22.4868L8.88222 22.5116L6.78839 24.6462C7.12794 25.2008 7.32364 25.8529 7.32364 26.5506C7.32364 28.5704 5.68381 30.2071 3.66182 30.2071C1.63983 30.2071 0 28.5704 0 26.5506C0 24.5308 1.63983 22.8942 3.66182 22.8942C4.3842 22.8942 5.0578 23.1031 5.62528 23.4637L7.6996 21.3492C8.02056 21.0226 8.5455 21.018 8.87207 21.339ZM3.66182 24.5525C2.55487 24.5525 1.65818 25.4475 1.65818 26.5506C1.65818 27.6538 2.55487 28.5487 3.66182 28.5487C4.76877 28.5487 5.66545 27.6538 5.66545 26.5506C5.66545 25.4475 4.76877 24.5525 3.66182 24.5525ZM18.8083 23.5536L20.012 24.7545C18.3542 25.8473 16.3679 26.4833 14.2327 26.4833C12.1332 26.4833 10.1776 25.8683 8.5367 24.8088L9.74317 23.6049C11.0591 24.3801 12.5938 24.825 14.2327 24.825C15.9075 24.825 17.4734 24.3605 18.8083 23.5536ZM5.40755 10.3152L6.61288 11.5181C5.83528 12.8317 5.38909 14.3639 5.38909 16C5.38909 17.6359 5.83519 19.168 6.61265 20.4815L5.40729 21.6844C4.34664 20.0469 3.73091 18.0953 3.73091 16C3.73091 13.9046 4.34674 11.9528 5.40755 10.3152ZM18.1018 17.0867L18.1018 19.7141C18.1018 20.1618 17.7469 20.5267 17.3031 20.5427L17.2727 20.5432H11.1927C10.745 20.5432 10.3802 20.1883 10.3642 19.7445L10.3636 19.7141L10.3635 17.0872L12.0217 17.8981L12.0218 18.8849H16.4436L16.4435 17.8977L18.1018 17.0867ZM27.2218 12.9642C28.9004 12.9642 30.2618 14.323 30.2618 16C30.2618 17.677 28.9004 19.0358 27.2218 19.0358C25.8309 19.0358 24.6578 18.1029 24.2965 16.829L22.5235 16.8292C22.0656 16.8292 21.6944 16.458 21.6944 16.0001C21.6945 15.5536 22.0474 15.1896 22.4894 15.1716L22.5236 15.1709L24.2966 15.1707C24.658 13.897 25.831 12.9642 27.2218 12.9642ZM14.5972 10.8118L20.2981 13.5999C20.4407 13.6696 20.5543 13.7748 20.6335 13.8996C20.7813 14.0436 20.8755 14.2423 20.8834 14.4631L20.884 14.4935V17.8035C20.884 18.2614 20.5128 18.6326 20.0549 18.6326C19.6072 18.6326 19.2423 18.2777 19.2264 17.8339L19.2258 17.8035L19.2257 15.614L14.5968 17.8782C14.367 17.9906 14.0981 17.9906 13.8683 17.8782L8.16734 15.0901C7.756 14.889 7.58566 14.3924 7.78687 13.981C7.86789 13.8154 8.00179 13.6815 8.16742 13.6005L13.8686 10.8118C14.0985 10.6994 14.3674 10.6994 14.5972 10.8118ZM27.2218 14.6225C26.4583 14.6225 25.84 15.2396 25.84 16L25.84 16.0041C25.8422 16.7626 26.4597 17.3775 27.2218 17.3775C27.9854 17.3775 28.6036 16.7604 28.6036 16C28.6036 15.2396 27.9854 14.6225 27.2218 14.6225ZM14.2328 12.4795L10.4188 14.3452L14.2327 16.2103L18.0467 14.3448L14.2328 12.4795ZM3.71027 2.46329C5.38885 2.46329 6.75028 3.82211 6.75028 5.49913C6.75028 6.02807 6.61484 6.52536 6.37674 6.95834L9.73092 10.1085C10.0586 10.4284 10.065 10.9533 9.74512 11.281C9.43325 11.6004 8.92641 11.6145 8.59752 11.3185L8.57257 11.2952L5.21207 8.13925C4.76903 8.39112 4.25644 8.53498 3.71027 8.53498C2.0317 8.53498 0.670275 7.17616 0.670275 5.49913C0.670275 3.82211 2.0317 2.46329 3.71027 2.46329ZM26.6691 0C28.6529 0 30.2618 1.60581 30.2618 3.58751C30.2618 5.56921 28.6529 7.17501 26.6691 7.17501C25.9774 7.17501 25.3312 6.97979 24.783 6.64147L20.622 10.7944C20.2979 11.1179 19.773 11.1174 19.4495 10.7932C19.1342 10.4772 19.1268 9.97021 19.427 9.64523L19.4507 9.6206L23.6099 5.46957C23.2716 4.92248 23.0764 4.2778 23.0764 3.58751C23.0764 1.60581 24.6853 0 26.6691 0ZM14.2327 5.51666C16.3322 5.51666 18.2878 6.13167 19.9287 7.19109L18.7223 8.39513C17.4063 7.61986 15.8716 7.17501 14.2327 7.17501C12.594 7.17501 11.0595 7.61974 9.74371 8.39481L8.5371 7.1909C10.1779 6.1316 12.1334 5.51666 14.2327 5.51666ZM3.71027 4.12164C2.94674 4.12164 2.32846 4.73874 2.32846 5.49913C2.32846 6.25952 2.94674 6.87663 3.71027 6.87663C4.47381 6.87663 5.09209 6.25952 5.09209 5.49913C5.09209 4.73874 4.47381 4.12164 3.71027 4.12164ZM26.6691 1.65835C25.6003 1.65835 24.7345 2.52244 24.7345 3.58751C24.7345 4.65258 25.6003 5.51666 26.6691 5.51666C27.7379 5.51666 28.6036 4.65258 28.6036 3.58751C28.6036 2.52244 27.7379 1.65835 26.6691 1.65835Z" fill="#FF6F61"></path></svg>